<mxfile host="app.diagrams.net" modified="2023-06-01T21:33:42.640Z" agent="Mozilla/5.0 (Windows NT 10.0; Win64; x64) AppleWebKit/537.36 (KHTML, like Gecko) Chrome/113.0.0.0 Safari/537.36 Edg/113.0.1774.57" etag="u2VNJJ-EWn85mNmOJZxh" version="21.3.4" type="github" pages="5">
  <diagram name="Conceitos" id="XthjDxd_ldRY0nDRmntZ">
    <mxGraphModel dx="1262" dy="703" grid="1" gridSize="10" guides="1" tooltips="1" connect="1" arrows="1" fold="1" page="1" pageScale="1" pageWidth="1169" pageHeight="827" math="0" shadow="0">
      <root>
        <mxCell id="0" />
        <mxCell id="1" parent="0" />
        <mxCell id="0kPTUc-leHkfFv8hKTmp-1" value="Conceitos:&lt;br&gt;&lt;ul&gt;&lt;li style=&quot;text-align: left;&quot;&gt;AMQP - Advanced Message Queuing Protocol&lt;/li&gt;&lt;li style=&quot;text-align: left;&quot;&gt;Exchanges (Roteadores)&lt;/li&gt;&lt;li style=&quot;text-align: left;&quot;&gt;Queues (Armazenar mensagens&lt;/li&gt;&lt;li style=&quot;text-align: left;&quot;&gt;Bindings (Ligação exchanges e queues)&lt;/li&gt;&lt;/ul&gt;" style="shape=note;strokeWidth=2;fontSize=14;size=20;whiteSpace=wrap;html=1;fillColor=#fff2cc;strokeColor=#d6b656;fontColor=#666600;" parent="1" vertex="1">
          <mxGeometry x="60" y="100" width="360" height="130" as="geometry" />
        </mxCell>
        <mxCell id="ZhYOX3PSUqlM3dc_WpZG-1" value="Exchanges:&lt;br&gt;&lt;ul&gt;&lt;li&gt;Fanout (Broadcast&lt;/li&gt;&lt;li&gt;Direct (RoutingKey)&lt;/li&gt;&lt;/ul&gt;" style="shape=note;strokeWidth=2;fontSize=14;size=20;whiteSpace=wrap;html=1;fillColor=#fff2cc;strokeColor=#d6b656;fontColor=#666600;align=left;" parent="1" vertex="1">
          <mxGeometry x="460" y="100" width="250" height="140" as="geometry" />
        </mxCell>
      </root>
    </mxGraphModel>
  </diagram>
  <diagram id="WheY2VaPFETDvhrN5edd" name="Fanout">
    <mxGraphModel dx="851" dy="1644" grid="1" gridSize="10" guides="1" tooltips="1" connect="1" arrows="1" fold="1" page="1" pageScale="1" pageWidth="827" pageHeight="1169" math="0" shadow="0">
      <root>
        <mxCell id="0" />
        <mxCell id="1" parent="0" />
        <mxCell id="UZg_H_tiI4CBftIHZ1YZ-1" value="[Fanout] Novos pedidos" style="outlineConnect=0;dashed=0;verticalLabelPosition=bottom;verticalAlign=top;align=center;html=1;shape=mxgraph.aws3.topic;fillColor=#5294CF;gradientColor=none;" parent="1" vertex="1">
          <mxGeometry x="500" y="213" width="39.5" height="66" as="geometry" />
        </mxCell>
        <mxCell id="UZg_H_tiI4CBftIHZ1YZ-4" style="edgeStyle=orthogonalEdgeStyle;rounded=0;orthogonalLoop=1;jettySize=auto;html=1;entryX=0.167;entryY=0.438;entryDx=0;entryDy=0;entryPerimeter=0;" parent="1" source="UZg_H_tiI4CBftIHZ1YZ-2" target="UZg_H_tiI4CBftIHZ1YZ-3" edge="1">
          <mxGeometry relative="1" as="geometry" />
        </mxCell>
        <mxCell id="UZg_H_tiI4CBftIHZ1YZ-6" value="PedidoCriadoEvent" style="edgeLabel;html=1;align=center;verticalAlign=middle;resizable=0;points=[];" parent="UZg_H_tiI4CBftIHZ1YZ-4" vertex="1" connectable="0">
          <mxGeometry x="-0.1001" relative="1" as="geometry">
            <mxPoint as="offset" />
          </mxGeometry>
        </mxCell>
        <mxCell id="ERx7Ai81CyhH9eZW6Y2v-6" style="edgeStyle=orthogonalEdgeStyle;rounded=0;orthogonalLoop=1;jettySize=auto;html=1;" edge="1" parent="1" source="UZg_H_tiI4CBftIHZ1YZ-2">
          <mxGeometry relative="1" as="geometry">
            <mxPoint x="95" y="510" as="targetPoint" />
          </mxGeometry>
        </mxCell>
        <mxCell id="ERx7Ai81CyhH9eZW6Y2v-33" style="edgeStyle=orthogonalEdgeStyle;rounded=0;orthogonalLoop=1;jettySize=auto;html=1;" edge="1" parent="1" source="UZg_H_tiI4CBftIHZ1YZ-2" target="ERx7Ai81CyhH9eZW6Y2v-20">
          <mxGeometry relative="1" as="geometry">
            <Array as="points">
              <mxPoint x="95" y="340" />
              <mxPoint x="350" y="340" />
            </Array>
          </mxGeometry>
        </mxCell>
        <mxCell id="UZg_H_tiI4CBftIHZ1YZ-2" value="[Microservice] pedidos" style="sketch=0;aspect=fixed;pointerEvents=1;shadow=0;dashed=0;html=1;strokeColor=none;labelPosition=center;verticalLabelPosition=bottom;verticalAlign=top;align=center;fillColor=#00188D;shape=mxgraph.azure.computer" parent="1" vertex="1">
          <mxGeometry x="70" y="221" width="50" height="45" as="geometry" />
        </mxCell>
        <mxCell id="UZg_H_tiI4CBftIHZ1YZ-5" style="edgeStyle=orthogonalEdgeStyle;rounded=0;orthogonalLoop=1;jettySize=auto;html=1;exitX=1;exitY=0.5;exitDx=0;exitDy=0;" parent="1" source="UZg_H_tiI4CBftIHZ1YZ-3" target="UZg_H_tiI4CBftIHZ1YZ-1" edge="1">
          <mxGeometry relative="1" as="geometry">
            <mxPoint x="510" y="170" as="targetPoint" />
            <Array as="points">
              <mxPoint x="530" y="246" />
              <mxPoint x="530" y="246" />
            </Array>
          </mxGeometry>
        </mxCell>
        <mxCell id="UZg_H_tiI4CBftIHZ1YZ-17" value="Binding" style="edgeLabel;html=1;align=center;verticalAlign=middle;resizable=0;points=[];" parent="UZg_H_tiI4CBftIHZ1YZ-5" vertex="1" connectable="0">
          <mxGeometry x="-0.1574" y="-2" relative="1" as="geometry">
            <mxPoint as="offset" />
          </mxGeometry>
        </mxCell>
        <mxCell id="UZg_H_tiI4CBftIHZ1YZ-3" value="Dados do pedido" style="shape=message;html=1;html=1;outlineConnect=0;labelPosition=center;verticalLabelPosition=bottom;align=center;verticalAlign=top;" parent="1" vertex="1">
          <mxGeometry x="300" y="226" width="60" height="40" as="geometry" />
        </mxCell>
        <mxCell id="UZg_H_tiI4CBftIHZ1YZ-16" style="edgeStyle=orthogonalEdgeStyle;rounded=0;orthogonalLoop=1;jettySize=auto;html=1;" parent="1" source="UZg_H_tiI4CBftIHZ1YZ-7" edge="1">
          <mxGeometry relative="1" as="geometry">
            <mxPoint x="205.00000000000023" y="230" as="targetPoint" />
          </mxGeometry>
        </mxCell>
        <mxCell id="UZg_H_tiI4CBftIHZ1YZ-7" value="Evento de domínio" style="shape=note;strokeWidth=2;fontSize=14;size=20;whiteSpace=wrap;html=1;fillColor=#fff2cc;strokeColor=#d6b656;fontColor=#666600;" parent="1" vertex="1">
          <mxGeometry x="150" y="37.5" width="110.00000000000001" height="80" as="geometry" />
        </mxCell>
        <mxCell id="UZg_H_tiI4CBftIHZ1YZ-10" style="edgeStyle=orthogonalEdgeStyle;rounded=0;orthogonalLoop=1;jettySize=auto;html=1;entryX=0.5;entryY=0;entryDx=0;entryDy=0;entryPerimeter=0;" parent="1" source="UZg_H_tiI4CBftIHZ1YZ-9" target="UZg_H_tiI4CBftIHZ1YZ-1" edge="1">
          <mxGeometry relative="1" as="geometry" />
        </mxCell>
        <mxCell id="UZg_H_tiI4CBftIHZ1YZ-11" value="Binding" style="edgeLabel;html=1;align=center;verticalAlign=middle;resizable=0;points=[];" parent="UZg_H_tiI4CBftIHZ1YZ-10" vertex="1" connectable="0">
          <mxGeometry x="-0.3499" y="3" relative="1" as="geometry">
            <mxPoint as="offset" />
          </mxGeometry>
        </mxCell>
        <mxCell id="UZg_H_tiI4CBftIHZ1YZ-9" value="Atualizar estoque" style="verticalLabelPosition=bottom;html=1;verticalAlign=top;align=center;strokeColor=none;fillColor=#00BEF2;shape=mxgraph.azure.storage_queue;" parent="1" vertex="1">
          <mxGeometry x="777" y="55" width="50" height="45" as="geometry" />
        </mxCell>
        <mxCell id="UZg_H_tiI4CBftIHZ1YZ-14" style="edgeStyle=orthogonalEdgeStyle;rounded=0;orthogonalLoop=1;jettySize=auto;html=1;entryX=1;entryY=0.5;entryDx=0;entryDy=0;entryPerimeter=0;" parent="1" source="UZg_H_tiI4CBftIHZ1YZ-13" target="UZg_H_tiI4CBftIHZ1YZ-9" edge="1">
          <mxGeometry relative="1" as="geometry" />
        </mxCell>
        <mxCell id="UZg_H_tiI4CBftIHZ1YZ-15" value="Ouvindo e processando as mensagens" style="edgeLabel;html=1;align=center;verticalAlign=middle;resizable=0;points=[];" parent="UZg_H_tiI4CBftIHZ1YZ-14" vertex="1" connectable="0">
          <mxGeometry x="0.3026" y="-2" relative="1" as="geometry">
            <mxPoint x="52" y="2" as="offset" />
          </mxGeometry>
        </mxCell>
        <mxCell id="UZg_H_tiI4CBftIHZ1YZ-13" value="[Microservice] estoque" style="sketch=0;aspect=fixed;pointerEvents=1;shadow=0;dashed=0;html=1;strokeColor=none;labelPosition=center;verticalLabelPosition=bottom;verticalAlign=top;align=center;fillColor=#00188D;shape=mxgraph.azure.computer" parent="1" vertex="1">
          <mxGeometry x="1130" y="55" width="50" height="45" as="geometry" />
        </mxCell>
        <mxCell id="x1HbzwD6zlI2Ou7NzLnr-2" style="edgeStyle=orthogonalEdgeStyle;rounded=0;orthogonalLoop=1;jettySize=auto;html=1;" parent="1" source="x1HbzwD6zlI2Ou7NzLnr-1" target="UZg_H_tiI4CBftIHZ1YZ-1" edge="1">
          <mxGeometry relative="1" as="geometry">
            <mxPoint x="550" y="244" as="targetPoint" />
            <Array as="points">
              <mxPoint x="580" y="244" />
              <mxPoint x="580" y="244" />
            </Array>
          </mxGeometry>
        </mxCell>
        <mxCell id="x1HbzwD6zlI2Ou7NzLnr-3" value="Binding" style="edgeLabel;html=1;align=center;verticalAlign=middle;resizable=0;points=[];" parent="x1HbzwD6zlI2Ou7NzLnr-2" vertex="1" connectable="0">
          <mxGeometry x="-0.1751" y="1" relative="1" as="geometry">
            <mxPoint x="-29" y="1" as="offset" />
          </mxGeometry>
        </mxCell>
        <mxCell id="x1HbzwD6zlI2Ou7NzLnr-1" value="Processar pagamentos" style="verticalLabelPosition=bottom;html=1;verticalAlign=top;align=center;strokeColor=none;fillColor=#00BEF2;shape=mxgraph.azure.storage_queue;" parent="1" vertex="1">
          <mxGeometry x="777" y="223.5" width="50" height="45" as="geometry" />
        </mxCell>
        <mxCell id="x1HbzwD6zlI2Ou7NzLnr-7" value="Ouvindo a fila" style="edgeStyle=orthogonalEdgeStyle;rounded=0;orthogonalLoop=1;jettySize=auto;html=1;entryX=1;entryY=0.5;entryDx=0;entryDy=0;entryPerimeter=0;" parent="1" source="x1HbzwD6zlI2Ou7NzLnr-6" target="x1HbzwD6zlI2Ou7NzLnr-1" edge="1">
          <mxGeometry relative="1" as="geometry" />
        </mxCell>
        <mxCell id="x1HbzwD6zlI2Ou7NzLnr-6" value="[Microservice] pagamentos" style="sketch=0;aspect=fixed;pointerEvents=1;shadow=0;dashed=0;html=1;strokeColor=none;labelPosition=center;verticalLabelPosition=bottom;verticalAlign=top;align=center;fillColor=#00188D;shape=mxgraph.azure.computer" parent="1" vertex="1">
          <mxGeometry x="1140" y="221" width="50" height="45" as="geometry" />
        </mxCell>
        <mxCell id="x1HbzwD6zlI2Ou7NzLnr-10" style="edgeStyle=orthogonalEdgeStyle;rounded=0;orthogonalLoop=1;jettySize=auto;html=1;" parent="1" source="x1HbzwD6zlI2Ou7NzLnr-9" target="UZg_H_tiI4CBftIHZ1YZ-1" edge="1">
          <mxGeometry relative="1" as="geometry" />
        </mxCell>
        <mxCell id="x1HbzwD6zlI2Ou7NzLnr-11" value="Binding" style="edgeLabel;html=1;align=center;verticalAlign=middle;resizable=0;points=[];" parent="x1HbzwD6zlI2Ou7NzLnr-10" vertex="1" connectable="0">
          <mxGeometry x="-0.3157" relative="1" as="geometry">
            <mxPoint as="offset" />
          </mxGeometry>
        </mxCell>
        <mxCell id="x1HbzwD6zlI2Ou7NzLnr-9" value="Atualizar dashboards" style="verticalLabelPosition=bottom;html=1;verticalAlign=top;align=center;strokeColor=none;fillColor=#00BEF2;shape=mxgraph.azure.storage_queue;" parent="1" vertex="1">
          <mxGeometry x="777" y="370" width="50" height="45" as="geometry" />
        </mxCell>
        <mxCell id="x1HbzwD6zlI2Ou7NzLnr-13" style="edgeStyle=orthogonalEdgeStyle;rounded=0;orthogonalLoop=1;jettySize=auto;html=1;entryX=1;entryY=0.5;entryDx=0;entryDy=0;entryPerimeter=0;" parent="1" source="x1HbzwD6zlI2Ou7NzLnr-12" target="x1HbzwD6zlI2Ou7NzLnr-9" edge="1">
          <mxGeometry relative="1" as="geometry" />
        </mxCell>
        <mxCell id="x1HbzwD6zlI2Ou7NzLnr-14" value="Ouvindo a fila" style="edgeLabel;html=1;align=center;verticalAlign=middle;resizable=0;points=[];" parent="x1HbzwD6zlI2Ou7NzLnr-13" vertex="1" connectable="0">
          <mxGeometry x="-0.106" y="3" relative="1" as="geometry">
            <mxPoint x="-7" y="-3" as="offset" />
          </mxGeometry>
        </mxCell>
        <mxCell id="x1HbzwD6zlI2Ou7NzLnr-12" value="[Microservice] pagamentos" style="sketch=0;aspect=fixed;pointerEvents=1;shadow=0;dashed=0;html=1;strokeColor=none;labelPosition=center;verticalLabelPosition=bottom;verticalAlign=top;align=center;fillColor=#00188D;shape=mxgraph.azure.computer" parent="1" vertex="1">
          <mxGeometry x="1140" y="370" width="50" height="45" as="geometry" />
        </mxCell>
        <mxCell id="x1HbzwD6zlI2Ou7NzLnr-16" style="edgeStyle=orthogonalEdgeStyle;rounded=0;orthogonalLoop=1;jettySize=auto;html=1;entryX=0.5;entryY=0;entryDx=0;entryDy=0;entryPerimeter=0;" parent="1" source="x1HbzwD6zlI2Ou7NzLnr-15" target="UZg_H_tiI4CBftIHZ1YZ-9" edge="1">
          <mxGeometry relative="1" as="geometry" />
        </mxCell>
        <mxCell id="x1HbzwD6zlI2Ou7NzLnr-15" value="Filas" style="shape=note;strokeWidth=2;fontSize=14;size=20;whiteSpace=wrap;html=1;fillColor=#fff2cc;strokeColor=#d6b656;fontColor=#666600;" parent="1" vertex="1">
          <mxGeometry x="640" y="-160" width="110" height="80" as="geometry" />
        </mxCell>
        <mxCell id="x1HbzwD6zlI2Ou7NzLnr-20" style="edgeStyle=orthogonalEdgeStyle;rounded=0;orthogonalLoop=1;jettySize=auto;html=1;entryX=0;entryY=0.14;entryDx=0;entryDy=0;entryPerimeter=0;" parent="1" source="x1HbzwD6zlI2Ou7NzLnr-17" target="UZg_H_tiI4CBftIHZ1YZ-1" edge="1">
          <mxGeometry relative="1" as="geometry" />
        </mxCell>
        <mxCell id="x1HbzwD6zlI2Ou7NzLnr-17" value="Exchanges" style="shape=note;strokeWidth=2;fontSize=14;size=20;whiteSpace=wrap;html=1;fillColor=#fff2cc;strokeColor=#d6b656;fontColor=#666600;" parent="1" vertex="1">
          <mxGeometry x="330" y="-25" width="110.00000000000001" height="80" as="geometry" />
        </mxCell>
        <mxCell id="ERx7Ai81CyhH9eZW6Y2v-1" value="" style="whiteSpace=wrap;html=1;aspect=fixed;" vertex="1" parent="1">
          <mxGeometry x="720" y="230" width="80" height="80" as="geometry" />
        </mxCell>
        <mxCell id="ERx7Ai81CyhH9eZW6Y2v-7" value="Cliente" style="shape=table;startSize=30;container=1;collapsible=1;childLayout=tableLayout;fixedRows=1;rowLines=0;fontStyle=1;align=center;resizeLast=1;html=1;" vertex="1" parent="1">
          <mxGeometry x="40" y="510" width="180" height="150" as="geometry" />
        </mxCell>
        <mxCell id="ERx7Ai81CyhH9eZW6Y2v-8" value="" style="shape=tableRow;horizontal=0;startSize=0;swimlaneHead=0;swimlaneBody=0;fillColor=none;collapsible=0;dropTarget=0;points=[[0,0.5],[1,0.5]];portConstraint=eastwest;top=0;left=0;right=0;bottom=1;" vertex="1" parent="ERx7Ai81CyhH9eZW6Y2v-7">
          <mxGeometry y="30" width="180" height="30" as="geometry" />
        </mxCell>
        <mxCell id="ERx7Ai81CyhH9eZW6Y2v-9" value="PK" style="shape=partialRectangle;connectable=0;fillColor=none;top=0;left=0;bottom=0;right=0;fontStyle=1;overflow=hidden;whiteSpace=wrap;html=1;" vertex="1" parent="ERx7Ai81CyhH9eZW6Y2v-8">
          <mxGeometry width="30" height="30" as="geometry">
            <mxRectangle width="30" height="30" as="alternateBounds" />
          </mxGeometry>
        </mxCell>
        <mxCell id="ERx7Ai81CyhH9eZW6Y2v-10" value="UniqueID" style="shape=partialRectangle;connectable=0;fillColor=none;top=0;left=0;bottom=0;right=0;align=left;spacingLeft=6;fontStyle=5;overflow=hidden;whiteSpace=wrap;html=1;" vertex="1" parent="ERx7Ai81CyhH9eZW6Y2v-8">
          <mxGeometry x="30" width="150" height="30" as="geometry">
            <mxRectangle width="150" height="30" as="alternateBounds" />
          </mxGeometry>
        </mxCell>
        <mxCell id="ERx7Ai81CyhH9eZW6Y2v-11" value="" style="shape=tableRow;horizontal=0;startSize=0;swimlaneHead=0;swimlaneBody=0;fillColor=none;collapsible=0;dropTarget=0;points=[[0,0.5],[1,0.5]];portConstraint=eastwest;top=0;left=0;right=0;bottom=0;" vertex="1" parent="ERx7Ai81CyhH9eZW6Y2v-7">
          <mxGeometry y="60" width="180" height="30" as="geometry" />
        </mxCell>
        <mxCell id="ERx7Ai81CyhH9eZW6Y2v-12" value="" style="shape=partialRectangle;connectable=0;fillColor=none;top=0;left=0;bottom=0;right=0;editable=1;overflow=hidden;whiteSpace=wrap;html=1;" vertex="1" parent="ERx7Ai81CyhH9eZW6Y2v-11">
          <mxGeometry width="30" height="30" as="geometry">
            <mxRectangle width="30" height="30" as="alternateBounds" />
          </mxGeometry>
        </mxCell>
        <mxCell id="ERx7Ai81CyhH9eZW6Y2v-13" value="Row 1" style="shape=partialRectangle;connectable=0;fillColor=none;top=0;left=0;bottom=0;right=0;align=left;spacingLeft=6;overflow=hidden;whiteSpace=wrap;html=1;" vertex="1" parent="ERx7Ai81CyhH9eZW6Y2v-11">
          <mxGeometry x="30" width="150" height="30" as="geometry">
            <mxRectangle width="150" height="30" as="alternateBounds" />
          </mxGeometry>
        </mxCell>
        <mxCell id="ERx7Ai81CyhH9eZW6Y2v-14" value="" style="shape=tableRow;horizontal=0;startSize=0;swimlaneHead=0;swimlaneBody=0;fillColor=none;collapsible=0;dropTarget=0;points=[[0,0.5],[1,0.5]];portConstraint=eastwest;top=0;left=0;right=0;bottom=0;" vertex="1" parent="ERx7Ai81CyhH9eZW6Y2v-7">
          <mxGeometry y="90" width="180" height="30" as="geometry" />
        </mxCell>
        <mxCell id="ERx7Ai81CyhH9eZW6Y2v-15" value="" style="shape=partialRectangle;connectable=0;fillColor=none;top=0;left=0;bottom=0;right=0;editable=1;overflow=hidden;whiteSpace=wrap;html=1;" vertex="1" parent="ERx7Ai81CyhH9eZW6Y2v-14">
          <mxGeometry width="30" height="30" as="geometry">
            <mxRectangle width="30" height="30" as="alternateBounds" />
          </mxGeometry>
        </mxCell>
        <mxCell id="ERx7Ai81CyhH9eZW6Y2v-16" value="Row 2" style="shape=partialRectangle;connectable=0;fillColor=none;top=0;left=0;bottom=0;right=0;align=left;spacingLeft=6;overflow=hidden;whiteSpace=wrap;html=1;" vertex="1" parent="ERx7Ai81CyhH9eZW6Y2v-14">
          <mxGeometry x="30" width="150" height="30" as="geometry">
            <mxRectangle width="150" height="30" as="alternateBounds" />
          </mxGeometry>
        </mxCell>
        <mxCell id="ERx7Ai81CyhH9eZW6Y2v-17" value="" style="shape=tableRow;horizontal=0;startSize=0;swimlaneHead=0;swimlaneBody=0;fillColor=none;collapsible=0;dropTarget=0;points=[[0,0.5],[1,0.5]];portConstraint=eastwest;top=0;left=0;right=0;bottom=0;" vertex="1" parent="ERx7Ai81CyhH9eZW6Y2v-7">
          <mxGeometry y="120" width="180" height="30" as="geometry" />
        </mxCell>
        <mxCell id="ERx7Ai81CyhH9eZW6Y2v-18" value="" style="shape=partialRectangle;connectable=0;fillColor=none;top=0;left=0;bottom=0;right=0;editable=1;overflow=hidden;whiteSpace=wrap;html=1;" vertex="1" parent="ERx7Ai81CyhH9eZW6Y2v-17">
          <mxGeometry width="30" height="30" as="geometry">
            <mxRectangle width="30" height="30" as="alternateBounds" />
          </mxGeometry>
        </mxCell>
        <mxCell id="ERx7Ai81CyhH9eZW6Y2v-19" value="Row 3" style="shape=partialRectangle;connectable=0;fillColor=none;top=0;left=0;bottom=0;right=0;align=left;spacingLeft=6;overflow=hidden;whiteSpace=wrap;html=1;" vertex="1" parent="ERx7Ai81CyhH9eZW6Y2v-17">
          <mxGeometry x="30" width="150" height="30" as="geometry">
            <mxRectangle width="150" height="30" as="alternateBounds" />
          </mxGeometry>
        </mxCell>
        <mxCell id="ERx7Ai81CyhH9eZW6Y2v-20" value="Outbox" style="shape=table;startSize=30;container=1;collapsible=1;childLayout=tableLayout;fixedRows=1;rowLines=0;fontStyle=1;align=center;resizeLast=1;html=1;" vertex="1" parent="1">
          <mxGeometry x="260" y="510" width="180" height="150" as="geometry" />
        </mxCell>
        <mxCell id="ERx7Ai81CyhH9eZW6Y2v-21" value="" style="shape=tableRow;horizontal=0;startSize=0;swimlaneHead=0;swimlaneBody=0;fillColor=none;collapsible=0;dropTarget=0;points=[[0,0.5],[1,0.5]];portConstraint=eastwest;top=0;left=0;right=0;bottom=1;" vertex="1" parent="ERx7Ai81CyhH9eZW6Y2v-20">
          <mxGeometry y="30" width="180" height="30" as="geometry" />
        </mxCell>
        <mxCell id="ERx7Ai81CyhH9eZW6Y2v-22" value="PK" style="shape=partialRectangle;connectable=0;fillColor=none;top=0;left=0;bottom=0;right=0;fontStyle=1;overflow=hidden;whiteSpace=wrap;html=1;" vertex="1" parent="ERx7Ai81CyhH9eZW6Y2v-21">
          <mxGeometry width="30" height="30" as="geometry">
            <mxRectangle width="30" height="30" as="alternateBounds" />
          </mxGeometry>
        </mxCell>
        <mxCell id="ERx7Ai81CyhH9eZW6Y2v-23" value="UniqueID" style="shape=partialRectangle;connectable=0;fillColor=none;top=0;left=0;bottom=0;right=0;align=left;spacingLeft=6;fontStyle=5;overflow=hidden;whiteSpace=wrap;html=1;" vertex="1" parent="ERx7Ai81CyhH9eZW6Y2v-21">
          <mxGeometry x="30" width="150" height="30" as="geometry">
            <mxRectangle width="150" height="30" as="alternateBounds" />
          </mxGeometry>
        </mxCell>
        <mxCell id="ERx7Ai81CyhH9eZW6Y2v-24" value="" style="shape=tableRow;horizontal=0;startSize=0;swimlaneHead=0;swimlaneBody=0;fillColor=none;collapsible=0;dropTarget=0;points=[[0,0.5],[1,0.5]];portConstraint=eastwest;top=0;left=0;right=0;bottom=0;" vertex="1" parent="ERx7Ai81CyhH9eZW6Y2v-20">
          <mxGeometry y="60" width="180" height="30" as="geometry" />
        </mxCell>
        <mxCell id="ERx7Ai81CyhH9eZW6Y2v-25" value="" style="shape=partialRectangle;connectable=0;fillColor=none;top=0;left=0;bottom=0;right=0;editable=1;overflow=hidden;whiteSpace=wrap;html=1;" vertex="1" parent="ERx7Ai81CyhH9eZW6Y2v-24">
          <mxGeometry width="30" height="30" as="geometry">
            <mxRectangle width="30" height="30" as="alternateBounds" />
          </mxGeometry>
        </mxCell>
        <mxCell id="ERx7Ai81CyhH9eZW6Y2v-26" value="MessageType" style="shape=partialRectangle;connectable=0;fillColor=none;top=0;left=0;bottom=0;right=0;align=left;spacingLeft=6;overflow=hidden;whiteSpace=wrap;html=1;" vertex="1" parent="ERx7Ai81CyhH9eZW6Y2v-24">
          <mxGeometry x="30" width="150" height="30" as="geometry">
            <mxRectangle width="150" height="30" as="alternateBounds" />
          </mxGeometry>
        </mxCell>
        <mxCell id="ERx7Ai81CyhH9eZW6Y2v-27" value="" style="shape=tableRow;horizontal=0;startSize=0;swimlaneHead=0;swimlaneBody=0;fillColor=none;collapsible=0;dropTarget=0;points=[[0,0.5],[1,0.5]];portConstraint=eastwest;top=0;left=0;right=0;bottom=0;" vertex="1" parent="ERx7Ai81CyhH9eZW6Y2v-20">
          <mxGeometry y="90" width="180" height="30" as="geometry" />
        </mxCell>
        <mxCell id="ERx7Ai81CyhH9eZW6Y2v-28" value="" style="shape=partialRectangle;connectable=0;fillColor=none;top=0;left=0;bottom=0;right=0;editable=1;overflow=hidden;whiteSpace=wrap;html=1;" vertex="1" parent="ERx7Ai81CyhH9eZW6Y2v-27">
          <mxGeometry width="30" height="30" as="geometry">
            <mxRectangle width="30" height="30" as="alternateBounds" />
          </mxGeometry>
        </mxCell>
        <mxCell id="ERx7Ai81CyhH9eZW6Y2v-29" value="MessageData" style="shape=partialRectangle;connectable=0;fillColor=none;top=0;left=0;bottom=0;right=0;align=left;spacingLeft=6;overflow=hidden;whiteSpace=wrap;html=1;" vertex="1" parent="ERx7Ai81CyhH9eZW6Y2v-27">
          <mxGeometry x="30" width="150" height="30" as="geometry">
            <mxRectangle width="150" height="30" as="alternateBounds" />
          </mxGeometry>
        </mxCell>
        <mxCell id="ERx7Ai81CyhH9eZW6Y2v-30" value="" style="shape=tableRow;horizontal=0;startSize=0;swimlaneHead=0;swimlaneBody=0;fillColor=none;collapsible=0;dropTarget=0;points=[[0,0.5],[1,0.5]];portConstraint=eastwest;top=0;left=0;right=0;bottom=0;" vertex="1" parent="ERx7Ai81CyhH9eZW6Y2v-20">
          <mxGeometry y="120" width="180" height="30" as="geometry" />
        </mxCell>
        <mxCell id="ERx7Ai81CyhH9eZW6Y2v-31" value="" style="shape=partialRectangle;connectable=0;fillColor=none;top=0;left=0;bottom=0;right=0;editable=1;overflow=hidden;whiteSpace=wrap;html=1;" vertex="1" parent="ERx7Ai81CyhH9eZW6Y2v-30">
          <mxGeometry width="30" height="30" as="geometry">
            <mxRectangle width="30" height="30" as="alternateBounds" />
          </mxGeometry>
        </mxCell>
        <mxCell id="ERx7Ai81CyhH9eZW6Y2v-32" value="Row 3" style="shape=partialRectangle;connectable=0;fillColor=none;top=0;left=0;bottom=0;right=0;align=left;spacingLeft=6;overflow=hidden;whiteSpace=wrap;html=1;" vertex="1" parent="ERx7Ai81CyhH9eZW6Y2v-30">
          <mxGeometry x="30" width="150" height="30" as="geometry">
            <mxRectangle width="150" height="30" as="alternateBounds" />
          </mxGeometry>
        </mxCell>
        <mxCell id="ERx7Ai81CyhH9eZW6Y2v-36" style="edgeStyle=orthogonalEdgeStyle;rounded=0;orthogonalLoop=1;jettySize=auto;html=1;" edge="1" parent="1" source="ERx7Ai81CyhH9eZW6Y2v-34">
          <mxGeometry relative="1" as="geometry">
            <mxPoint x="450" y="572" as="targetPoint" />
          </mxGeometry>
        </mxCell>
        <mxCell id="ERx7Ai81CyhH9eZW6Y2v-37" style="edgeStyle=orthogonalEdgeStyle;rounded=0;orthogonalLoop=1;jettySize=auto;html=1;" edge="1" parent="1" source="ERx7Ai81CyhH9eZW6Y2v-34" target="UZg_H_tiI4CBftIHZ1YZ-1">
          <mxGeometry relative="1" as="geometry">
            <Array as="points">
              <mxPoint x="550" y="246" />
            </Array>
          </mxGeometry>
        </mxCell>
        <mxCell id="ERx7Ai81CyhH9eZW6Y2v-34" value="Publish" style="image;aspect=fixed;html=1;points=[];align=center;fontSize=12;image=img/lib/azure2/management_governance/Scheduler_Job_Collections.svg;" vertex="1" parent="1">
          <mxGeometry x="550" y="540" width="68" height="64" as="geometry" />
        </mxCell>
        <mxCell id="ERx7Ai81CyhH9eZW6Y2v-38" style="edgeStyle=orthogonalEdgeStyle;rounded=0;orthogonalLoop=1;jettySize=auto;html=1;" edge="1" parent="1" source="ERx7Ai81CyhH9eZW6Y2v-35" target="UZg_H_tiI4CBftIHZ1YZ-1">
          <mxGeometry relative="1" as="geometry">
            <Array as="points">
              <mxPoint x="904" y="470" />
              <mxPoint x="520" y="470" />
            </Array>
          </mxGeometry>
        </mxCell>
        <mxCell id="ERx7Ai81CyhH9eZW6Y2v-42" style="edgeStyle=orthogonalEdgeStyle;rounded=0;orthogonalLoop=1;jettySize=auto;html=1;entryX=0.2;entryY=0.771;entryDx=0;entryDy=0;entryPerimeter=0;" edge="1" parent="1" source="ERx7Ai81CyhH9eZW6Y2v-35" target="ERx7Ai81CyhH9eZW6Y2v-41">
          <mxGeometry relative="1" as="geometry" />
        </mxCell>
        <mxCell id="ERx7Ai81CyhH9eZW6Y2v-44" value="Editar" style="edgeLabel;html=1;align=center;verticalAlign=middle;resizable=0;points=[];" vertex="1" connectable="0" parent="ERx7Ai81CyhH9eZW6Y2v-42">
          <mxGeometry x="0.1042" y="-1" relative="1" as="geometry">
            <mxPoint as="offset" />
          </mxGeometry>
        </mxCell>
        <mxCell id="ERx7Ai81CyhH9eZW6Y2v-35" value="Consumer" style="image;aspect=fixed;html=1;points=[];align=center;fontSize=12;image=img/lib/azure2/management_governance/Scheduler_Job_Collections.svg;" vertex="1" parent="1">
          <mxGeometry x="870" y="553" width="68" height="64" as="geometry" />
        </mxCell>
        <mxCell id="ERx7Ai81CyhH9eZW6Y2v-39" value="PGBL" style="image;aspect=fixed;html=1;points=[];align=center;fontSize=12;image=img/lib/azure2/databases/Elastic_Job_Agents.svg;" vertex="1" parent="1">
          <mxGeometry x="1310" y="553" width="64" height="64" as="geometry" />
        </mxCell>
        <mxCell id="ERx7Ai81CyhH9eZW6Y2v-43" style="edgeStyle=orthogonalEdgeStyle;rounded=0;orthogonalLoop=1;jettySize=auto;html=1;" edge="1" parent="1" source="ERx7Ai81CyhH9eZW6Y2v-41">
          <mxGeometry relative="1" as="geometry">
            <mxPoint x="1320" y="600" as="targetPoint" />
            <Array as="points">
              <mxPoint x="1320" y="590" />
            </Array>
          </mxGeometry>
        </mxCell>
        <mxCell id="ERx7Ai81CyhH9eZW6Y2v-41" value="ACL" style="sketch=0;html=1;dashed=0;whitespace=wrap;fillColor=#2875E2;strokeColor=#ffffff;points=[[0.005,0.63,0],[0.1,0.2,0],[0.9,0.2,0],[0.5,0,0],[0.995,0.63,0],[0.72,0.99,0],[0.5,1,0],[0.28,0.99,0]];verticalLabelPosition=bottom;align=center;verticalAlign=top;shape=mxgraph.kubernetes.icon;prIcon=api" vertex="1" parent="1">
          <mxGeometry x="1120" y="548" width="50" height="48" as="geometry" />
        </mxCell>
      </root>
    </mxGraphModel>
  </diagram>
  <diagram id="4SWXx13reAakSw8_JxCk" name="Direct">
    <mxGraphModel dx="2001" dy="1946" grid="1" gridSize="10" guides="1" tooltips="1" connect="1" arrows="1" fold="1" page="1" pageScale="1" pageWidth="1169" pageHeight="827" math="0" shadow="0">
      <root>
        <mxCell id="0" />
        <mxCell id="1" parent="0" />
        <mxCell id="c9DYYqeioyPbtq_Utgk2-1" value="[Direct] Novos pedidos" style="outlineConnect=0;dashed=0;verticalLabelPosition=bottom;verticalAlign=top;align=center;html=1;shape=mxgraph.aws3.topic;fillColor=#5294CF;gradientColor=none;" vertex="1" parent="1">
          <mxGeometry x="620" y="158" width="39.5" height="66" as="geometry" />
        </mxCell>
        <mxCell id="c9DYYqeioyPbtq_Utgk2-2" style="edgeStyle=orthogonalEdgeStyle;rounded=0;orthogonalLoop=1;jettySize=auto;html=1;entryX=0.167;entryY=0.438;entryDx=0;entryDy=0;entryPerimeter=0;" edge="1" parent="1" source="c9DYYqeioyPbtq_Utgk2-4" target="c9DYYqeioyPbtq_Utgk2-7">
          <mxGeometry relative="1" as="geometry" />
        </mxCell>
        <mxCell id="c9DYYqeioyPbtq_Utgk2-3" value="PedidoCriadoEvent" style="edgeLabel;html=1;align=center;verticalAlign=middle;resizable=0;points=[];" vertex="1" connectable="0" parent="c9DYYqeioyPbtq_Utgk2-2">
          <mxGeometry x="-0.1001" relative="1" as="geometry">
            <mxPoint as="offset" />
          </mxGeometry>
        </mxCell>
        <mxCell id="c9DYYqeioyPbtq_Utgk2-4" value="[Microservice] pedidos" style="sketch=0;aspect=fixed;pointerEvents=1;shadow=0;dashed=0;html=1;strokeColor=none;labelPosition=center;verticalLabelPosition=bottom;verticalAlign=top;align=center;fillColor=#00188D;shape=mxgraph.azure.computer" vertex="1" parent="1">
          <mxGeometry x="190" y="166" width="50" height="45" as="geometry" />
        </mxCell>
        <mxCell id="c9DYYqeioyPbtq_Utgk2-5" style="edgeStyle=orthogonalEdgeStyle;rounded=0;orthogonalLoop=1;jettySize=auto;html=1;exitX=1;exitY=0.5;exitDx=0;exitDy=0;" edge="1" parent="1" source="c9DYYqeioyPbtq_Utgk2-7" target="c9DYYqeioyPbtq_Utgk2-1">
          <mxGeometry relative="1" as="geometry">
            <mxPoint x="630" y="115" as="targetPoint" />
            <Array as="points">
              <mxPoint x="650" y="191" />
              <mxPoint x="650" y="191" />
            </Array>
          </mxGeometry>
        </mxCell>
        <mxCell id="c9DYYqeioyPbtq_Utgk2-6" value="Binding" style="edgeLabel;html=1;align=center;verticalAlign=middle;resizable=0;points=[];" vertex="1" connectable="0" parent="c9DYYqeioyPbtq_Utgk2-5">
          <mxGeometry x="-0.1574" y="-2" relative="1" as="geometry">
            <mxPoint as="offset" />
          </mxGeometry>
        </mxCell>
        <mxCell id="c9DYYqeioyPbtq_Utgk2-7" value="Dados do pedido" style="shape=message;html=1;html=1;outlineConnect=0;labelPosition=center;verticalLabelPosition=bottom;align=center;verticalAlign=top;" vertex="1" parent="1">
          <mxGeometry x="420" y="171" width="60" height="40" as="geometry" />
        </mxCell>
        <mxCell id="c9DYYqeioyPbtq_Utgk2-8" style="edgeStyle=orthogonalEdgeStyle;rounded=0;orthogonalLoop=1;jettySize=auto;html=1;" edge="1" parent="1" source="c9DYYqeioyPbtq_Utgk2-9">
          <mxGeometry relative="1" as="geometry">
            <mxPoint x="325.0000000000002" y="175" as="targetPoint" />
          </mxGeometry>
        </mxCell>
        <mxCell id="c9DYYqeioyPbtq_Utgk2-9" value="Evento de domínio" style="shape=note;strokeWidth=2;fontSize=14;size=20;whiteSpace=wrap;html=1;fillColor=#fff2cc;strokeColor=#d6b656;fontColor=#666600;" vertex="1" parent="1">
          <mxGeometry x="270" y="-17.5" width="110.00000000000001" height="80" as="geometry" />
        </mxCell>
        <mxCell id="c9DYYqeioyPbtq_Utgk2-29" style="edgeStyle=orthogonalEdgeStyle;rounded=0;orthogonalLoop=1;jettySize=auto;html=1;entryX=0;entryY=0.14;entryDx=0;entryDy=0;entryPerimeter=0;" edge="1" parent="1" source="c9DYYqeioyPbtq_Utgk2-30" target="c9DYYqeioyPbtq_Utgk2-1">
          <mxGeometry relative="1" as="geometry">
            <Array as="points">
              <mxPoint x="560" y="-40" />
              <mxPoint x="560" y="167" />
            </Array>
          </mxGeometry>
        </mxCell>
        <mxCell id="c9DYYqeioyPbtq_Utgk2-30" value="Exchanges" style="shape=note;strokeWidth=2;fontSize=14;size=20;whiteSpace=wrap;html=1;fillColor=#fff2cc;strokeColor=#d6b656;fontColor=#666600;" vertex="1" parent="1">
          <mxGeometry x="420" y="-80" width="110.00000000000001" height="80" as="geometry" />
        </mxCell>
        <mxCell id="c9DYYqeioyPbtq_Utgk2-36" style="edgeStyle=orthogonalEdgeStyle;rounded=0;orthogonalLoop=1;jettySize=auto;html=1;" edge="1" parent="1" source="c9DYYqeioyPbtq_Utgk2-31" target="c9DYYqeioyPbtq_Utgk2-1">
          <mxGeometry relative="1" as="geometry" />
        </mxCell>
        <mxCell id="c9DYYqeioyPbtq_Utgk2-39" value="RoutingKey=servico" style="edgeLabel;html=1;align=center;verticalAlign=middle;resizable=0;points=[];" vertex="1" connectable="0" parent="c9DYYqeioyPbtq_Utgk2-36">
          <mxGeometry x="-0.4754" y="1" relative="1" as="geometry">
            <mxPoint x="-23" y="-1" as="offset" />
          </mxGeometry>
        </mxCell>
        <mxCell id="c9DYYqeioyPbtq_Utgk2-31" value="produtos-servico" style="verticalLabelPosition=bottom;html=1;verticalAlign=top;align=center;strokeColor=none;fillColor=#00BEF2;shape=mxgraph.azure.storage_queue;" vertex="1" parent="1">
          <mxGeometry x="940" y="345" width="50" height="45" as="geometry" />
        </mxCell>
        <mxCell id="c9DYYqeioyPbtq_Utgk2-35" style="edgeStyle=orthogonalEdgeStyle;rounded=0;orthogonalLoop=1;jettySize=auto;html=1;" edge="1" parent="1" source="c9DYYqeioyPbtq_Utgk2-32" target="c9DYYqeioyPbtq_Utgk2-1">
          <mxGeometry relative="1" as="geometry">
            <mxPoint x="680" y="191" as="targetPoint" />
          </mxGeometry>
        </mxCell>
        <mxCell id="c9DYYqeioyPbtq_Utgk2-38" value="RoutingKey=software" style="edgeLabel;html=1;align=center;verticalAlign=middle;resizable=0;points=[];" vertex="1" connectable="0" parent="c9DYYqeioyPbtq_Utgk2-35">
          <mxGeometry x="-0.0993" y="3" relative="1" as="geometry">
            <mxPoint x="-12" y="-3" as="offset" />
          </mxGeometry>
        </mxCell>
        <mxCell id="c9DYYqeioyPbtq_Utgk2-32" value="produtos-software" style="verticalLabelPosition=bottom;html=1;verticalAlign=top;align=center;strokeColor=none;fillColor=#00BEF2;shape=mxgraph.azure.storage_queue;" vertex="1" parent="1">
          <mxGeometry x="940" y="171" width="50" height="45" as="geometry" />
        </mxCell>
        <mxCell id="c9DYYqeioyPbtq_Utgk2-34" style="edgeStyle=orthogonalEdgeStyle;rounded=0;orthogonalLoop=1;jettySize=auto;html=1;" edge="1" parent="1" source="c9DYYqeioyPbtq_Utgk2-33" target="c9DYYqeioyPbtq_Utgk2-1">
          <mxGeometry relative="1" as="geometry" />
        </mxCell>
        <mxCell id="c9DYYqeioyPbtq_Utgk2-37" value="RoutingKey=hardware" style="edgeLabel;html=1;align=center;verticalAlign=middle;resizable=0;points=[];" vertex="1" connectable="0" parent="c9DYYqeioyPbtq_Utgk2-34">
          <mxGeometry x="-0.5692" y="2" relative="1" as="geometry">
            <mxPoint x="-46" y="-2" as="offset" />
          </mxGeometry>
        </mxCell>
        <mxCell id="c9DYYqeioyPbtq_Utgk2-33" value="produtos-hardware" style="verticalLabelPosition=bottom;html=1;verticalAlign=top;align=center;strokeColor=none;fillColor=#00BEF2;shape=mxgraph.azure.storage_queue;" vertex="1" parent="1">
          <mxGeometry x="940" width="50" height="45" as="geometry" />
        </mxCell>
      </root>
    </mxGraphModel>
  </diagram>
  <diagram id="CbEMwD25QNkZpxkEu1AE" name="Topic">
    <mxGraphModel dx="2001" dy="1119" grid="1" gridSize="10" guides="1" tooltips="1" connect="1" arrows="1" fold="1" page="1" pageScale="1" pageWidth="1169" pageHeight="827" math="0" shadow="0">
      <root>
        <mxCell id="0" />
        <mxCell id="1" parent="0" />
        <mxCell id="lmpJBHMxBAnoSveNWnrx-1" value="[Topic] Novos pedidos" style="outlineConnect=0;dashed=0;verticalLabelPosition=bottom;verticalAlign=top;align=center;html=1;shape=mxgraph.aws3.topic;fillColor=#5294CF;gradientColor=none;" vertex="1" parent="1">
          <mxGeometry x="615" y="417" width="39.5" height="66" as="geometry" />
        </mxCell>
        <mxCell id="lmpJBHMxBAnoSveNWnrx-2" style="edgeStyle=orthogonalEdgeStyle;rounded=0;orthogonalLoop=1;jettySize=auto;html=1;entryX=0.167;entryY=0.438;entryDx=0;entryDy=0;entryPerimeter=0;" edge="1" parent="1" source="lmpJBHMxBAnoSveNWnrx-4" target="lmpJBHMxBAnoSveNWnrx-7">
          <mxGeometry relative="1" as="geometry" />
        </mxCell>
        <mxCell id="lmpJBHMxBAnoSveNWnrx-3" value="PedidoCriadoEvent" style="edgeLabel;html=1;align=center;verticalAlign=middle;resizable=0;points=[];" vertex="1" connectable="0" parent="lmpJBHMxBAnoSveNWnrx-2">
          <mxGeometry x="-0.1001" relative="1" as="geometry">
            <mxPoint as="offset" />
          </mxGeometry>
        </mxCell>
        <mxCell id="lmpJBHMxBAnoSveNWnrx-4" value="[Microservice] pedidos" style="sketch=0;aspect=fixed;pointerEvents=1;shadow=0;dashed=0;html=1;strokeColor=none;labelPosition=center;verticalLabelPosition=bottom;verticalAlign=top;align=center;fillColor=#00188D;shape=mxgraph.azure.computer" vertex="1" parent="1">
          <mxGeometry x="185" y="425" width="50" height="45" as="geometry" />
        </mxCell>
        <mxCell id="lmpJBHMxBAnoSveNWnrx-5" style="edgeStyle=orthogonalEdgeStyle;rounded=0;orthogonalLoop=1;jettySize=auto;html=1;exitX=1;exitY=0.5;exitDx=0;exitDy=0;" edge="1" parent="1" source="lmpJBHMxBAnoSveNWnrx-7" target="lmpJBHMxBAnoSveNWnrx-1">
          <mxGeometry relative="1" as="geometry">
            <mxPoint x="625" y="374" as="targetPoint" />
            <Array as="points">
              <mxPoint x="645" y="450" />
              <mxPoint x="645" y="450" />
            </Array>
          </mxGeometry>
        </mxCell>
        <mxCell id="lmpJBHMxBAnoSveNWnrx-6" value="Binding" style="edgeLabel;html=1;align=center;verticalAlign=middle;resizable=0;points=[];" vertex="1" connectable="0" parent="lmpJBHMxBAnoSveNWnrx-5">
          <mxGeometry x="-0.1574" y="-2" relative="1" as="geometry">
            <mxPoint as="offset" />
          </mxGeometry>
        </mxCell>
        <mxCell id="lmpJBHMxBAnoSveNWnrx-7" value="Dados do pedido" style="shape=message;html=1;html=1;outlineConnect=0;labelPosition=center;verticalLabelPosition=bottom;align=center;verticalAlign=top;" vertex="1" parent="1">
          <mxGeometry x="415" y="430" width="60" height="40" as="geometry" />
        </mxCell>
        <mxCell id="lmpJBHMxBAnoSveNWnrx-8" style="edgeStyle=orthogonalEdgeStyle;rounded=0;orthogonalLoop=1;jettySize=auto;html=1;" edge="1" parent="1" source="lmpJBHMxBAnoSveNWnrx-9">
          <mxGeometry relative="1" as="geometry">
            <mxPoint x="320.0000000000002" y="434" as="targetPoint" />
          </mxGeometry>
        </mxCell>
        <mxCell id="lmpJBHMxBAnoSveNWnrx-9" value="Evento de domínio" style="shape=note;strokeWidth=2;fontSize=14;size=20;whiteSpace=wrap;html=1;fillColor=#fff2cc;strokeColor=#d6b656;fontColor=#666600;" vertex="1" parent="1">
          <mxGeometry x="265" y="241.5" width="110.00000000000001" height="80" as="geometry" />
        </mxCell>
        <mxCell id="lmpJBHMxBAnoSveNWnrx-10" style="edgeStyle=orthogonalEdgeStyle;rounded=0;orthogonalLoop=1;jettySize=auto;html=1;entryX=0;entryY=0.14;entryDx=0;entryDy=0;entryPerimeter=0;" edge="1" parent="1" source="lmpJBHMxBAnoSveNWnrx-11" target="lmpJBHMxBAnoSveNWnrx-1">
          <mxGeometry relative="1" as="geometry">
            <Array as="points">
              <mxPoint x="555" y="219" />
              <mxPoint x="555" y="426" />
            </Array>
          </mxGeometry>
        </mxCell>
        <mxCell id="lmpJBHMxBAnoSveNWnrx-11" value="Exchanges" style="shape=note;strokeWidth=2;fontSize=14;size=20;whiteSpace=wrap;html=1;fillColor=#fff2cc;strokeColor=#d6b656;fontColor=#666600;" vertex="1" parent="1">
          <mxGeometry x="415" y="179" width="110.00000000000001" height="80" as="geometry" />
        </mxCell>
        <mxCell id="lmpJBHMxBAnoSveNWnrx-12" style="edgeStyle=orthogonalEdgeStyle;rounded=0;orthogonalLoop=1;jettySize=auto;html=1;" edge="1" parent="1" source="lmpJBHMxBAnoSveNWnrx-14" target="lmpJBHMxBAnoSveNWnrx-1">
          <mxGeometry relative="1" as="geometry" />
        </mxCell>
        <mxCell id="lmpJBHMxBAnoSveNWnrx-13" value="RoutingKey: hardware.*.express" style="edgeLabel;html=1;align=center;verticalAlign=middle;resizable=0;points=[];" vertex="1" connectable="0" parent="lmpJBHMxBAnoSveNWnrx-12">
          <mxGeometry x="-0.4754" y="1" relative="1" as="geometry">
            <mxPoint x="-23" y="-1" as="offset" />
          </mxGeometry>
        </mxCell>
        <mxCell id="lmpJBHMxBAnoSveNWnrx-14" value="produtos-hardware-entrega-express" style="verticalLabelPosition=bottom;html=1;verticalAlign=top;align=center;strokeColor=none;fillColor=#00BEF2;shape=mxgraph.azure.storage_queue;" vertex="1" parent="1">
          <mxGeometry x="935" y="604" width="50" height="45" as="geometry" />
        </mxCell>
        <mxCell id="lmpJBHMxBAnoSveNWnrx-15" style="edgeStyle=orthogonalEdgeStyle;rounded=0;orthogonalLoop=1;jettySize=auto;html=1;" edge="1" parent="1" source="lmpJBHMxBAnoSveNWnrx-17" target="lmpJBHMxBAnoSveNWnrx-1">
          <mxGeometry relative="1" as="geometry">
            <mxPoint x="675" y="450" as="targetPoint" />
          </mxGeometry>
        </mxCell>
        <mxCell id="lmpJBHMxBAnoSveNWnrx-16" value="RoutingKey: *.pr.*&amp;nbsp;" style="edgeLabel;html=1;align=center;verticalAlign=middle;resizable=0;points=[];" vertex="1" connectable="0" parent="lmpJBHMxBAnoSveNWnrx-15">
          <mxGeometry x="-0.0993" y="3" relative="1" as="geometry">
            <mxPoint x="-12" y="-3" as="offset" />
          </mxGeometry>
        </mxCell>
        <mxCell id="lmpJBHMxBAnoSveNWnrx-17" value="produtos-parana" style="verticalLabelPosition=bottom;html=1;verticalAlign=top;align=center;strokeColor=none;fillColor=#00BEF2;shape=mxgraph.azure.storage_queue;" vertex="1" parent="1">
          <mxGeometry x="935" y="430" width="50" height="45" as="geometry" />
        </mxCell>
        <mxCell id="lmpJBHMxBAnoSveNWnrx-18" style="edgeStyle=orthogonalEdgeStyle;rounded=0;orthogonalLoop=1;jettySize=auto;html=1;" edge="1" parent="1" source="lmpJBHMxBAnoSveNWnrx-20" target="lmpJBHMxBAnoSveNWnrx-1">
          <mxGeometry relative="1" as="geometry" />
        </mxCell>
        <mxCell id="lmpJBHMxBAnoSveNWnrx-19" value="RoutingKey: hardware.#" style="edgeLabel;html=1;align=center;verticalAlign=middle;resizable=0;points=[];" vertex="1" connectable="0" parent="lmpJBHMxBAnoSveNWnrx-18">
          <mxGeometry x="-0.5692" y="2" relative="1" as="geometry">
            <mxPoint x="-46" y="-2" as="offset" />
          </mxGeometry>
        </mxCell>
        <mxCell id="lmpJBHMxBAnoSveNWnrx-20" value="produtos-hardware" style="verticalLabelPosition=bottom;html=1;verticalAlign=top;align=center;strokeColor=none;fillColor=#00BEF2;shape=mxgraph.azure.storage_queue;" vertex="1" parent="1">
          <mxGeometry x="935" y="259" width="50" height="45" as="geometry" />
        </mxCell>
        <mxCell id="lmpJBHMxBAnoSveNWnrx-21" value="&lt;ul&gt;&lt;li&gt;sp&lt;/li&gt;&lt;li&gt;sc&lt;/li&gt;&lt;li&gt;pr&lt;/li&gt;&lt;/ul&gt;RoutingKey: &amp;lt;tipo&amp;gt;&amp;lt;estado&amp;gt;&amp;lt;tipo&amp;gt;&amp;lt;entrega&amp;gt;" style="shape=note;strokeWidth=2;fontSize=14;size=20;whiteSpace=wrap;html=1;fillColor=#fff2cc;strokeColor=#d6b656;fontColor=#666600;align=left;" vertex="1" parent="1">
          <mxGeometry x="40.5" y="20" width="339" height="121" as="geometry" />
        </mxCell>
        <mxCell id="lmpJBHMxBAnoSveNWnrx-22" value="* : Match em uma ou mais palavras e tipo de entrega não importa&lt;br&gt;&lt;br&gt;#: Match em zero ou mais palavras, primeira palavra e o que vem depois" style="shape=note;strokeWidth=2;fontSize=14;size=20;whiteSpace=wrap;html=1;fillColor=#fff2cc;strokeColor=#d6b656;fontColor=#666600;align=left;" vertex="1" parent="1">
          <mxGeometry x="585" y="30" width="460" height="140" as="geometry" />
        </mxCell>
      </root>
    </mxGraphModel>
  </diagram>
  <diagram id="XF91Dk3rV0ZPYHNpQ0X9" name="Consumer">
    <mxGraphModel dx="1143" dy="639" grid="1" gridSize="10" guides="1" tooltips="1" connect="1" arrows="1" fold="1" page="1" pageScale="1" pageWidth="1169" pageHeight="827" math="0" shadow="0">
      <root>
        <mxCell id="0" />
        <mxCell id="1" parent="0" />
        <mxCell id="pix79rrStLEaxRidX4yL-1" value="[Topic] Novos pedidos" style="outlineConnect=0;dashed=0;verticalLabelPosition=bottom;verticalAlign=top;align=center;html=1;shape=mxgraph.aws3.topic;fillColor=#5294CF;gradientColor=none;" vertex="1" parent="1">
          <mxGeometry x="500" y="377" width="39.5" height="66" as="geometry" />
        </mxCell>
        <mxCell id="pix79rrStLEaxRidX4yL-2" style="edgeStyle=orthogonalEdgeStyle;rounded=0;orthogonalLoop=1;jettySize=auto;html=1;entryX=0.167;entryY=0.438;entryDx=0;entryDy=0;entryPerimeter=0;" edge="1" parent="1" source="pix79rrStLEaxRidX4yL-4" target="pix79rrStLEaxRidX4yL-7">
          <mxGeometry relative="1" as="geometry" />
        </mxCell>
        <mxCell id="pix79rrStLEaxRidX4yL-3" value="PedidoCriadoEvent" style="edgeLabel;html=1;align=center;verticalAlign=middle;resizable=0;points=[];" vertex="1" connectable="0" parent="pix79rrStLEaxRidX4yL-2">
          <mxGeometry x="-0.1001" relative="1" as="geometry">
            <mxPoint as="offset" />
          </mxGeometry>
        </mxCell>
        <mxCell id="pix79rrStLEaxRidX4yL-4" value="[Microservice] pedidos" style="sketch=0;aspect=fixed;pointerEvents=1;shadow=0;dashed=0;html=1;strokeColor=none;labelPosition=center;verticalLabelPosition=bottom;verticalAlign=top;align=center;fillColor=#00188D;shape=mxgraph.azure.computer" vertex="1" parent="1">
          <mxGeometry x="70" y="385" width="50" height="45" as="geometry" />
        </mxCell>
        <mxCell id="pix79rrStLEaxRidX4yL-5" style="edgeStyle=orthogonalEdgeStyle;rounded=0;orthogonalLoop=1;jettySize=auto;html=1;exitX=1;exitY=0.5;exitDx=0;exitDy=0;" edge="1" parent="1" source="pix79rrStLEaxRidX4yL-7" target="pix79rrStLEaxRidX4yL-1">
          <mxGeometry relative="1" as="geometry">
            <mxPoint x="510" y="334" as="targetPoint" />
            <Array as="points">
              <mxPoint x="530" y="410" />
              <mxPoint x="530" y="410" />
            </Array>
          </mxGeometry>
        </mxCell>
        <mxCell id="pix79rrStLEaxRidX4yL-6" value="Binding" style="edgeLabel;html=1;align=center;verticalAlign=middle;resizable=0;points=[];" vertex="1" connectable="0" parent="pix79rrStLEaxRidX4yL-5">
          <mxGeometry x="-0.1574" y="-2" relative="1" as="geometry">
            <mxPoint as="offset" />
          </mxGeometry>
        </mxCell>
        <mxCell id="pix79rrStLEaxRidX4yL-7" value="Dados do pedido" style="shape=message;html=1;html=1;outlineConnect=0;labelPosition=center;verticalLabelPosition=bottom;align=center;verticalAlign=top;" vertex="1" parent="1">
          <mxGeometry x="300" y="390" width="60" height="40" as="geometry" />
        </mxCell>
        <mxCell id="pix79rrStLEaxRidX4yL-12" style="edgeStyle=orthogonalEdgeStyle;rounded=0;orthogonalLoop=1;jettySize=auto;html=1;" edge="1" parent="1" source="pix79rrStLEaxRidX4yL-14" target="pix79rrStLEaxRidX4yL-1">
          <mxGeometry relative="1" as="geometry" />
        </mxCell>
        <mxCell id="pix79rrStLEaxRidX4yL-13" value="RoutingKey: hardware.*.express" style="edgeLabel;html=1;align=center;verticalAlign=middle;resizable=0;points=[];" vertex="1" connectable="0" parent="pix79rrStLEaxRidX4yL-12">
          <mxGeometry x="-0.4754" y="1" relative="1" as="geometry">
            <mxPoint x="-23" y="-1" as="offset" />
          </mxGeometry>
        </mxCell>
        <mxCell id="pix79rrStLEaxRidX4yL-14" value="produtos-hardware-entrega-express" style="verticalLabelPosition=bottom;html=1;verticalAlign=top;align=center;strokeColor=none;fillColor=#00BEF2;shape=mxgraph.azure.storage_queue;" vertex="1" parent="1">
          <mxGeometry x="820" y="564" width="50" height="45" as="geometry" />
        </mxCell>
        <mxCell id="pix79rrStLEaxRidX4yL-15" style="edgeStyle=orthogonalEdgeStyle;rounded=0;orthogonalLoop=1;jettySize=auto;html=1;" edge="1" parent="1" source="pix79rrStLEaxRidX4yL-17" target="pix79rrStLEaxRidX4yL-1">
          <mxGeometry relative="1" as="geometry">
            <mxPoint x="560" y="410" as="targetPoint" />
          </mxGeometry>
        </mxCell>
        <mxCell id="pix79rrStLEaxRidX4yL-16" value="RoutingKey: *.pr.*&amp;nbsp;" style="edgeLabel;html=1;align=center;verticalAlign=middle;resizable=0;points=[];" vertex="1" connectable="0" parent="pix79rrStLEaxRidX4yL-15">
          <mxGeometry x="-0.0993" y="3" relative="1" as="geometry">
            <mxPoint x="-12" y="-3" as="offset" />
          </mxGeometry>
        </mxCell>
        <mxCell id="pix79rrStLEaxRidX4yL-17" value="produtos-parana" style="verticalLabelPosition=bottom;html=1;verticalAlign=top;align=center;strokeColor=none;fillColor=#00BEF2;shape=mxgraph.azure.storage_queue;" vertex="1" parent="1">
          <mxGeometry x="820" y="390" width="50" height="45" as="geometry" />
        </mxCell>
        <mxCell id="pix79rrStLEaxRidX4yL-18" style="edgeStyle=orthogonalEdgeStyle;rounded=0;orthogonalLoop=1;jettySize=auto;html=1;" edge="1" parent="1" source="pix79rrStLEaxRidX4yL-20" target="pix79rrStLEaxRidX4yL-1">
          <mxGeometry relative="1" as="geometry" />
        </mxCell>
        <mxCell id="pix79rrStLEaxRidX4yL-19" value="RoutingKey: hardware.#" style="edgeLabel;html=1;align=center;verticalAlign=middle;resizable=0;points=[];" vertex="1" connectable="0" parent="pix79rrStLEaxRidX4yL-18">
          <mxGeometry x="-0.5692" y="2" relative="1" as="geometry">
            <mxPoint x="-46" y="-2" as="offset" />
          </mxGeometry>
        </mxCell>
        <mxCell id="pix79rrStLEaxRidX4yL-20" value="produtos-hardware" style="verticalLabelPosition=bottom;html=1;verticalAlign=top;align=center;strokeColor=none;fillColor=#00BEF2;shape=mxgraph.azure.storage_queue;" vertex="1" parent="1">
          <mxGeometry x="820" y="219" width="50" height="45" as="geometry" />
        </mxCell>
        <mxCell id="pix79rrStLEaxRidX4yL-24" style="edgeStyle=orthogonalEdgeStyle;rounded=0;orthogonalLoop=1;jettySize=auto;html=1;entryX=1;entryY=0.5;entryDx=0;entryDy=0;entryPerimeter=0;" edge="1" parent="1" source="pix79rrStLEaxRidX4yL-23" target="pix79rrStLEaxRidX4yL-20">
          <mxGeometry relative="1" as="geometry" />
        </mxCell>
        <mxCell id="pix79rrStLEaxRidX4yL-25" value="[ Microservico] pedidos-tipo-hardware" style="edgeLabel;html=1;align=center;verticalAlign=middle;resizable=0;points=[];" vertex="1" connectable="0" parent="pix79rrStLEaxRidX4yL-24">
          <mxGeometry x="0.1092" y="3" relative="1" as="geometry">
            <mxPoint x="34" y="-3" as="offset" />
          </mxGeometry>
        </mxCell>
        <mxCell id="pix79rrStLEaxRidX4yL-23" value="[Microservice] pedidos" style="sketch=0;aspect=fixed;pointerEvents=1;shadow=0;dashed=0;html=1;strokeColor=none;labelPosition=center;verticalLabelPosition=bottom;verticalAlign=top;align=center;fillColor=#00188D;shape=mxgraph.azure.computer" vertex="1" parent="1">
          <mxGeometry x="1220" y="219" width="50" height="45" as="geometry" />
        </mxCell>
      </root>
    </mxGraphModel>
  </diagram>
</mxfile>
